<mxfile host="Electron" agent="Mozilla/5.0 (Macintosh; Intel Mac OS X 10_15_7) AppleWebKit/537.36 (KHTML, like Gecko) draw.io/25.0.2 Chrome/128.0.6613.186 Electron/32.2.5 Safari/537.36" version="25.0.2" pages="2">
  <diagram name="Page-1" id="qE-60qOEScG74K9CkrGx">
    <mxGraphModel dx="2394" dy="1394" grid="1" gridSize="10" guides="1" tooltips="1" connect="1" arrows="1" fold="1" page="1" pageScale="1" pageWidth="1169" pageHeight="827" math="0" shadow="0">
      <root>
        <mxCell id="0" />
        <mxCell id="1" parent="0" />
        <mxCell id="W_H5IT9AQ4fMe0j2pvi7-1" value="" style="endArrow=classic;startArrow=classic;html=1;rounded=0;" parent="1" edge="1">
          <mxGeometry width="50" height="50" relative="1" as="geometry">
            <mxPoint x="240" y="120" as="sourcePoint" />
            <mxPoint x="400" y="120" as="targetPoint" />
          </mxGeometry>
        </mxCell>
        <mxCell id="W_H5IT9AQ4fMe0j2pvi7-2" value="" style="endArrow=classic;startArrow=classic;html=1;rounded=0;" parent="1" edge="1">
          <mxGeometry width="50" height="50" relative="1" as="geometry">
            <mxPoint x="400" y="120" as="sourcePoint" />
            <mxPoint x="600" y="120" as="targetPoint" />
          </mxGeometry>
        </mxCell>
        <mxCell id="W_H5IT9AQ4fMe0j2pvi7-3" value="" style="endArrow=classic;startArrow=classic;html=1;rounded=0;" parent="1" edge="1">
          <mxGeometry width="50" height="50" relative="1" as="geometry">
            <mxPoint x="600" y="120" as="sourcePoint" />
            <mxPoint x="760" y="120" as="targetPoint" />
          </mxGeometry>
        </mxCell>
        <mxCell id="W_H5IT9AQ4fMe0j2pvi7-4" value="" style="endArrow=classic;startArrow=classic;html=1;rounded=0;" parent="1" edge="1">
          <mxGeometry width="50" height="50" relative="1" as="geometry">
            <mxPoint x="400" y="120" as="sourcePoint" />
            <mxPoint x="600" y="120" as="targetPoint" />
            <Array as="points">
              <mxPoint x="440" y="80" />
              <mxPoint x="500" y="80" />
              <mxPoint x="560" y="80" />
            </Array>
          </mxGeometry>
        </mxCell>
        <mxCell id="W_H5IT9AQ4fMe0j2pvi7-5" value="" style="endArrow=classic;startArrow=classic;html=1;rounded=0;" parent="1" edge="1">
          <mxGeometry width="50" height="50" relative="1" as="geometry">
            <mxPoint x="240" y="240" as="sourcePoint" />
            <mxPoint x="400" y="240" as="targetPoint" />
          </mxGeometry>
        </mxCell>
        <mxCell id="W_H5IT9AQ4fMe0j2pvi7-7" value="" style="endArrow=classic;startArrow=classic;html=1;rounded=0;" parent="1" edge="1">
          <mxGeometry width="50" height="50" relative="1" as="geometry">
            <mxPoint x="600" y="240" as="sourcePoint" />
            <mxPoint x="760" y="240" as="targetPoint" />
          </mxGeometry>
        </mxCell>
        <mxCell id="W_H5IT9AQ4fMe0j2pvi7-9" value="" style="ellipse;whiteSpace=wrap;html=1;" parent="1" vertex="1">
          <mxGeometry x="400" y="200" width="200" height="80" as="geometry" />
        </mxCell>
        <mxCell id="W_H5IT9AQ4fMe0j2pvi7-10" value="MICRO" style="text;html=1;align=center;verticalAlign=middle;whiteSpace=wrap;rounded=0;" parent="1" vertex="1">
          <mxGeometry x="790" y="100" width="60" height="30" as="geometry" />
        </mxCell>
        <mxCell id="W_H5IT9AQ4fMe0j2pvi7-11" value="MESO" style="text;html=1;align=center;verticalAlign=middle;whiteSpace=wrap;rounded=0;" parent="1" vertex="1">
          <mxGeometry x="790" y="220" width="60" height="30" as="geometry" />
        </mxCell>
        <mxCell id="W_H5IT9AQ4fMe0j2pvi7-12" value="&lt;b&gt;&lt;font style=&quot;font-size: 16px;&quot;&gt;Case 1&lt;/font&gt;&lt;/b&gt;" style="text;html=1;align=center;verticalAlign=middle;whiteSpace=wrap;rounded=0;" parent="1" vertex="1">
          <mxGeometry x="100" y="90" width="60" height="30" as="geometry" />
        </mxCell>
        <mxCell id="W_H5IT9AQ4fMe0j2pvi7-13" value="&lt;b&gt;&lt;font style=&quot;font-size: 16px;&quot;&gt;Case 2&lt;/font&gt;&lt;/b&gt;" style="text;html=1;align=center;verticalAlign=middle;whiteSpace=wrap;rounded=0;" parent="1" vertex="1">
          <mxGeometry x="100" y="370" width="60" height="30" as="geometry" />
        </mxCell>
      </root>
    </mxGraphModel>
  </diagram>
  <diagram id="0uSRSGuMtziAhYTmr92e" name="Location, Position">
    <mxGraphModel dx="2151" dy="1375" grid="1" gridSize="10" guides="1" tooltips="1" connect="1" arrows="1" fold="1" page="1" pageScale="1" pageWidth="1169" pageHeight="827" math="0" shadow="0">
      <root>
        <mxCell id="0" />
        <mxCell id="1" parent="0" />
        <mxCell id="5fTkr42M5cU23atdsVGQ-1" value="Reference systems and units" style="text;html=1;align=center;verticalAlign=middle;whiteSpace=wrap;rounded=0;" parent="1" vertex="1">
          <mxGeometry x="80" y="380" width="180" height="30" as="geometry" />
        </mxCell>
        <mxCell id="5fTkr42M5cU23atdsVGQ-46" value="" style="edgeStyle=orthogonalEdgeStyle;rounded=0;orthogonalLoop=1;jettySize=auto;html=1;entryX=0.544;entryY=0.023;entryDx=0;entryDy=0;entryPerimeter=0;" parent="1" source="5fTkr42M5cU23atdsVGQ-2" target="5fTkr42M5cU23atdsVGQ-1" edge="1">
          <mxGeometry relative="1" as="geometry" />
        </mxCell>
        <mxCell id="5fTkr42M5cU23atdsVGQ-47" value="relative to" style="edgeLabel;html=1;align=center;verticalAlign=middle;resizable=0;points=[];" parent="5fTkr42M5cU23atdsVGQ-46" vertex="1" connectable="0">
          <mxGeometry x="-0.2336" relative="1" as="geometry">
            <mxPoint as="offset" />
          </mxGeometry>
        </mxCell>
        <mxCell id="5fTkr42M5cU23atdsVGQ-2" value="Mathematical expressions&lt;div&gt;Offsets,&amp;nbsp;&lt;span style=&quot;background-color: initial;&quot;&gt;Sides,&amp;nbsp;&lt;/span&gt;&lt;span style=&quot;background-color: initial;&quot;&gt;Directions&lt;/span&gt;&lt;/div&gt;" style="text;html=1;align=center;verticalAlign=middle;whiteSpace=wrap;rounded=0;" parent="1" vertex="1">
          <mxGeometry x="90" y="290" width="180" height="47" as="geometry" />
        </mxCell>
        <mxCell id="5fTkr42M5cU23atdsVGQ-3" value="Locations [FR: Lieu] in space" style="text;html=1;align=center;verticalAlign=middle;whiteSpace=wrap;rounded=0;" parent="1" vertex="1">
          <mxGeometry x="85" y="180" width="170" height="30" as="geometry" />
        </mxCell>
        <mxCell id="5fTkr42M5cU23atdsVGQ-4" value="Position&lt;br&gt;Expressions" style="shape=curlyBracket;whiteSpace=wrap;html=1;rounded=1;labelPosition=left;verticalLabelPosition=middle;align=right;verticalAlign=middle;" parent="1" vertex="1">
          <mxGeometry x="70" y="284" width="20" height="120" as="geometry" />
        </mxCell>
        <mxCell id="5fTkr42M5cU23atdsVGQ-5" value="Spatial Entities (assets)" style="text;html=1;align=center;verticalAlign=middle;whiteSpace=wrap;rounded=0;" parent="1" vertex="1">
          <mxGeometry x="125" y="60" width="90" height="30" as="geometry" />
        </mxCell>
        <mxCell id="5fTkr42M5cU23atdsVGQ-6" value="Material: track, switch, signal..." style="text;html=1;align=center;verticalAlign=middle;whiteSpace=wrap;rounded=0;" parent="1" vertex="1">
          <mxGeometry x="300" y="60" width="180" height="30" as="geometry" />
        </mxCell>
        <mxCell id="5fTkr42M5cU23atdsVGQ-7" value="Immaterial: speed restriction zone, fouling point, radio coverage area ..." style="text;html=1;align=center;verticalAlign=middle;whiteSpace=wrap;rounded=0;" parent="1" vertex="1">
          <mxGeometry x="520" y="60" width="390" height="30" as="geometry" />
        </mxCell>
        <mxCell id="5fTkr42M5cU23atdsVGQ-8" value="describing &lt;b&gt;own geometry &lt;/b&gt;of the above,&lt;div&gt;using:&lt;br&gt;&lt;div&gt;geosparql:Geometry (geographic or engineering ref. sys.);&lt;/div&gt;&lt;div&gt;IFC alignment (geometric primitives)&lt;/div&gt;&lt;/div&gt;" style="text;html=1;align=center;verticalAlign=middle;whiteSpace=wrap;rounded=0;" parent="1" vertex="1">
          <mxGeometry x="310" y="337" width="220" height="30" as="geometry" />
        </mxCell>
        <mxCell id="5fTkr42M5cU23atdsVGQ-9" value="Spot&lt;br&gt;(&lt;i&gt;avoiding ambiguous &quot;point&quot;&lt;/i&gt;)" style="text;html=1;align=center;verticalAlign=middle;whiteSpace=wrap;rounded=0;" parent="1" vertex="1">
          <mxGeometry x="270" y="180" width="120" height="30" as="geometry" />
        </mxCell>
        <mxCell id="5fTkr42M5cU23atdsVGQ-10" value="Linear" style="text;html=1;align=center;verticalAlign=middle;whiteSpace=wrap;rounded=0;" parent="1" vertex="1">
          <mxGeometry x="430" y="180" width="60" height="30" as="geometry" />
        </mxCell>
        <mxCell id="5fTkr42M5cU23atdsVGQ-11" value="Area&lt;br&gt;(&lt;i&gt;incl. lines with branches&lt;/i&gt;)" style="text;html=1;align=center;verticalAlign=middle;whiteSpace=wrap;rounded=0;" parent="1" vertex="1">
          <mxGeometry x="542" y="180" width="140" height="30" as="geometry" />
        </mxCell>
        <mxCell id="5fTkr42M5cU23atdsVGQ-12" value="Volume (3D)" style="text;html=1;align=center;verticalAlign=middle;whiteSpace=wrap;rounded=0;" parent="1" vertex="1">
          <mxGeometry x="780" y="180" width="80" height="30" as="geometry" />
        </mxCell>
        <mxCell id="5fTkr42M5cU23atdsVGQ-13" value="their &lt;b&gt;Projections&lt;/b&gt; onto other geometries,&lt;div&gt;using:&lt;/div&gt;&lt;div&gt;ISO 19148 derived ontologies (linear ref.)&lt;/div&gt;" style="text;html=1;align=center;verticalAlign=middle;whiteSpace=wrap;rounded=0;" parent="1" vertex="1">
          <mxGeometry x="650" y="329" width="240" height="30" as="geometry" />
        </mxCell>
        <mxCell id="5fTkr42M5cU23atdsVGQ-14" value="" style="shape=curlyBracket;whiteSpace=wrap;html=1;rounded=1;flipH=1;labelPosition=right;verticalLabelPosition=middle;align=left;verticalAlign=middle;" parent="1" vertex="1">
          <mxGeometry x="260" y="284" width="20" height="120" as="geometry" />
        </mxCell>
        <mxCell id="5fTkr42M5cU23atdsVGQ-17" value="" style="shape=flexArrow;endArrow=classic;html=1;rounded=0;" parent="1" edge="1">
          <mxGeometry width="50" height="50" relative="1" as="geometry">
            <mxPoint x="169.61" y="100" as="sourcePoint" />
            <mxPoint x="169.23000000000002" y="170" as="targetPoint" />
          </mxGeometry>
        </mxCell>
        <mxCell id="5fTkr42M5cU23atdsVGQ-18" value="may have several&lt;br&gt;(depending on view)" style="edgeLabel;html=1;align=center;verticalAlign=middle;resizable=0;points=[];" parent="5fTkr42M5cU23atdsVGQ-17" vertex="1" connectable="0">
          <mxGeometry x="0.1308" y="-1" relative="1" as="geometry">
            <mxPoint x="1" y="-14" as="offset" />
          </mxGeometry>
        </mxCell>
        <mxCell id="5fTkr42M5cU23atdsVGQ-19" value="" style="shape=flexArrow;endArrow=classic;html=1;rounded=0;" parent="1" edge="1">
          <mxGeometry width="50" height="50" relative="1" as="geometry">
            <mxPoint x="169.61" y="210" as="sourcePoint" />
            <mxPoint x="169.23000000000002" y="278" as="targetPoint" />
          </mxGeometry>
        </mxCell>
        <mxCell id="5fTkr42M5cU23atdsVGQ-20" value="may have several&lt;br&gt;(depending on reference system)" style="edgeLabel;html=1;align=center;verticalAlign=middle;resizable=0;points=[];" parent="5fTkr42M5cU23atdsVGQ-19" vertex="1" connectable="0">
          <mxGeometry x="0.1308" y="-1" relative="1" as="geometry">
            <mxPoint x="1" y="-14" as="offset" />
          </mxGeometry>
        </mxCell>
        <mxCell id="5fTkr42M5cU23atdsVGQ-22" value="&amp;nbsp;=&amp;nbsp;" style="text;html=1;align=center;verticalAlign=middle;whiteSpace=wrap;rounded=0;" parent="1" vertex="1">
          <mxGeometry x="230" y="60" width="60" height="30" as="geometry" />
        </mxCell>
        <mxCell id="5fTkr42M5cU23atdsVGQ-23" value="&amp;nbsp;=&amp;nbsp;" style="text;html=1;align=center;verticalAlign=middle;whiteSpace=wrap;rounded=0;" parent="1" vertex="1">
          <mxGeometry x="230" y="180" width="60" height="30" as="geometry" />
        </mxCell>
        <mxCell id="5fTkr42M5cU23atdsVGQ-24" value="OR" style="text;html=1;align=center;verticalAlign=middle;whiteSpace=wrap;rounded=0;" parent="1" vertex="1">
          <mxGeometry x="470" y="60" width="60" height="30" as="geometry" />
        </mxCell>
        <mxCell id="5fTkr42M5cU23atdsVGQ-25" value="OR" style="text;html=1;align=center;verticalAlign=middle;whiteSpace=wrap;rounded=0;" parent="1" vertex="1">
          <mxGeometry x="380" y="180" width="60" height="30" as="geometry" />
        </mxCell>
        <mxCell id="5fTkr42M5cU23atdsVGQ-26" value="&lt;span style=&quot;font-weight: normal;&quot;&gt;OR&lt;/span&gt;" style="text;html=1;align=center;verticalAlign=middle;whiteSpace=wrap;rounded=0;fontStyle=1" parent="1" vertex="1">
          <mxGeometry x="480" y="180" width="60" height="30" as="geometry" />
        </mxCell>
        <mxCell id="5fTkr42M5cU23atdsVGQ-27" value="&lt;span style=&quot;font-weight: normal;&quot;&gt;OR&lt;/span&gt;" style="text;html=1;align=center;verticalAlign=middle;whiteSpace=wrap;rounded=0;fontStyle=1" parent="1" vertex="1">
          <mxGeometry x="700" y="180" width="60" height="30" as="geometry" />
        </mxCell>
        <mxCell id="5fTkr42M5cU23atdsVGQ-28" value="OR" style="text;html=1;align=center;verticalAlign=middle;whiteSpace=wrap;rounded=0;" parent="1" vertex="1">
          <mxGeometry x="570" y="329" width="60" height="30" as="geometry" />
        </mxCell>
        <mxCell id="5fTkr42M5cU23atdsVGQ-29" value="&lt;font style=&quot;font-size: 10px;&quot;&gt;OR is always &quot;inclusive OR&quot; (sometimes written and/or)&lt;/font&gt;" style="text;html=1;align=left;verticalAlign=middle;whiteSpace=wrap;rounded=0;" parent="1" vertex="1">
          <mxGeometry x="20" y="420" width="300" height="30" as="geometry" />
        </mxCell>
        <mxCell id="5fTkr42M5cU23atdsVGQ-30" value="&lt;b&gt;&lt;font style=&quot;font-size: 18px;&quot;&gt;Entities, Locations, Positions&lt;/font&gt;&lt;/b&gt;" style="text;html=1;align=left;verticalAlign=middle;whiteSpace=wrap;rounded=0;" parent="1" vertex="1">
          <mxGeometry x="10" y="10" width="280" height="30" as="geometry" />
        </mxCell>
        <mxCell id="5fTkr42M5cU23atdsVGQ-31" value="&lt;font style=&quot;font-size: 10px;&quot;&gt;A. Magnien, 5/12/2024&lt;/font&gt;" style="text;html=1;align=left;verticalAlign=middle;whiteSpace=wrap;rounded=0;" parent="1" vertex="1">
          <mxGeometry x="20" y="430" width="150" height="30" as="geometry" />
        </mxCell>
        <mxCell id="5fTkr42M5cU23atdsVGQ-32" value="topological objects&lt;br&gt;(elements, ports)" style="rounded=1;whiteSpace=wrap;html=1;" parent="1" vertex="1">
          <mxGeometry x="970" y="165" width="120" height="60" as="geometry" />
        </mxCell>
        <mxCell id="5fTkr42M5cU23atdsVGQ-33" value="" style="endArrow=classic;html=1;rounded=0;" parent="1" edge="1">
          <mxGeometry width="50" height="50" relative="1" as="geometry">
            <mxPoint x="870" y="195" as="sourcePoint" />
            <mxPoint x="960" y="194.62" as="targetPoint" />
          </mxGeometry>
        </mxCell>
        <mxCell id="5fTkr42M5cU23atdsVGQ-37" value="may refer to" style="edgeLabel;html=1;align=center;verticalAlign=middle;resizable=0;points=[];" parent="5fTkr42M5cU23atdsVGQ-33" vertex="1" connectable="0">
          <mxGeometry x="-0.4031" y="1" relative="1" as="geometry">
            <mxPoint x="23" y="-14" as="offset" />
          </mxGeometry>
        </mxCell>
        <mxCell id="5fTkr42M5cU23atdsVGQ-38" value="" style="shape=flexArrow;endArrow=classic;html=1;rounded=0;" parent="1" edge="1">
          <mxGeometry width="50" height="50" relative="1" as="geometry">
            <mxPoint x="1029.58" y="240" as="sourcePoint" />
            <mxPoint x="1029.58" y="300" as="targetPoint" />
          </mxGeometry>
        </mxCell>
        <mxCell id="5fTkr42M5cU23atdsVGQ-39" value="may have several&lt;br&gt;(depending on reference system)" style="edgeLabel;html=1;align=center;verticalAlign=middle;resizable=0;points=[];" parent="5fTkr42M5cU23atdsVGQ-38" vertex="1" connectable="0">
          <mxGeometry x="0.1308" y="-1" relative="1" as="geometry">
            <mxPoint x="1" y="-14" as="offset" />
          </mxGeometry>
        </mxCell>
        <mxCell id="5fTkr42M5cU23atdsVGQ-40" value="(Position&lt;br&gt;Expressions&lt;br&gt;including intrinsic coordinates as special LRS)" style="text;html=1;align=center;verticalAlign=middle;whiteSpace=wrap;rounded=0;" parent="1" vertex="1">
          <mxGeometry x="920" y="309" width="210" height="70" as="geometry" />
        </mxCell>
        <mxCell id="5fTkr42M5cU23atdsVGQ-48" value="Decision points:&lt;div&gt;&lt;ul&gt;&lt;li&gt;should a section of a linear element be defined by linear coordinates or by spots (point objects)?&lt;br&gt;&lt;/li&gt;&lt;ul&gt;&lt;li&gt;current ERA ontology proposal (dev of 3.1.0, Dec. 2024) uses spots (point objects).&lt;/li&gt;&lt;li&gt;RSM 1.2, sRSM both use intrinsic coordinates, and&lt;/li&gt;&lt;li&gt;RTM-RSM derived railML too&lt;br&gt;&lt;/li&gt;&lt;li&gt;proposal: stick to RSM intrinsic coordinates; define linear locations as a sequence (totally ordered collection) of oriented net elements or elements sections, fully using topology package; use List class for creating sequence as linked list with orientation property on its nodes.&lt;/li&gt;&lt;/ul&gt;&lt;/ul&gt;&lt;/div&gt;" style="text;html=1;align=left;verticalAlign=top;whiteSpace=wrap;rounded=0;" parent="1" vertex="1">
          <mxGeometry x="40" y="480" width="450" height="210" as="geometry" />
        </mxCell>
        <mxCell id="5fTkr42M5cU23atdsVGQ-50" value="Definitions&lt;div&gt;&lt;br&gt;&lt;/div&gt;&lt;div&gt;&lt;b&gt;Linear referencing &lt;/b&gt;[ISO 19148, 3.10]&lt;b&gt;:&amp;nbsp;&lt;/b&gt;&lt;i style=&quot;font-size: 11px; background-color: initial;&quot;&gt;specification of a location &lt;/i&gt;&lt;span style=&quot;font-size: 11px; background-color: initial; font-variant-numeric: normal; font-variant-east-asian: normal; font-variant-alternates: normal; font-size-adjust: none; font-kerning: auto; font-optical-sizing: auto; font-feature-settings: normal; font-variation-settings: normal; font-variant-position: normal; font-stretch: normal; line-height: normal; font-family: Times;&quot; class=&quot;s1&quot;&gt;&lt;i&gt;(&lt;/i&gt;&lt;/span&gt;&lt;span style=&quot;font-size: 11px; background-color: initial; font-variant-numeric: normal; font-variant-east-asian: normal; font-variant-alternates: normal; font-size-adjust: none; font-kerning: auto; font-optical-sizing: auto; font-feature-settings: normal; font-variation-settings: normal; font-variant-position: normal; font-stretch: normal; line-height: normal; font-family: Times; color: rgb(5, 60, 246);&quot; class=&quot;s2&quot;&gt;&lt;i&gt;3.19&lt;/i&gt;&lt;/span&gt;&lt;i style=&quot;font-size: 11px; background-color: initial;&quot;&gt;) relative to a linear element &lt;/i&gt;&lt;span style=&quot;font-size: 11px; background-color: initial; font-variant-numeric: normal; font-variant-east-asian: normal; font-variant-alternates: normal; font-size-adjust: none; font-kerning: auto; font-optical-sizing: auto; font-feature-settings: normal; font-variation-settings: normal; font-variant-position: normal; font-stretch: normal; line-height: normal; font-family: Times;&quot; class=&quot;s1&quot;&gt;&lt;i&gt;(&lt;/i&gt;&lt;/span&gt;&lt;span style=&quot;font-size: 11px; background-color: initial; font-variant-numeric: normal; font-variant-east-asian: normal; font-variant-alternates: normal; font-size-adjust: none; font-kerning: auto; font-optical-sizing: auto; font-feature-settings: normal; font-variation-settings: normal; font-variant-position: normal; font-stretch: normal; line-height: normal; font-family: Times; color: rgb(5, 60, 246);&quot; class=&quot;s2&quot;&gt;&lt;i&gt;3.9&lt;/i&gt;&lt;/span&gt;&lt;i style=&quot;font-size: 11px; background-color: initial;&quot;&gt;) as a measurement along (and optionally&amp;nbsp;&lt;/i&gt;&lt;i style=&quot;font-size: 11px; background-color: initial;&quot;&gt;offset from) that element&lt;/i&gt;&lt;/div&gt;&lt;div&gt;&lt;i style=&quot;font-size: 11px; background-color: initial;&quot;&gt;&lt;br&gt;&lt;/i&gt;&lt;/div&gt;&lt;div&gt;&lt;span style=&quot;background-color: initial;&quot;&gt;&lt;div style=&quot;&quot;&gt;&lt;font&gt;&lt;b style=&quot;&quot;&gt;L&lt;/b&gt;&lt;b style=&quot;&quot;&gt;inear referencing system (&lt;/b&gt;&lt;b style=&quot;background-color: initial;&quot;&gt;LRS)&amp;nbsp;&lt;/b&gt;&lt;/font&gt;&lt;span style=&quot;font-size: 12px; background-color: initial;&quot;&gt;[ISO 19148, 3.12]:&amp;nbsp;&lt;/span&gt;&lt;span style=&quot;font-size: 11px; font-style: italic; background-color: initial;&quot;&gt;set of linear referencing methods (3.11) and the policies, records and procedures for implementing them&lt;/span&gt;&lt;/div&gt;&lt;/span&gt;&lt;/div&gt;&lt;div&gt;&lt;i style=&quot;font-size: 11px; background-color: initial;&quot;&gt;&lt;br&gt;&lt;/i&gt;&lt;/div&gt;&lt;div&gt;&lt;span style=&quot;background-color: initial;&quot;&gt;&lt;b style=&quot;&quot;&gt;&lt;font&gt;Linear Element&lt;/font&gt;&lt;/b&gt;&lt;i style=&quot;font-size: 11px;&quot;&gt;&amp;nbsp;&lt;/i&gt;&lt;/span&gt;&lt;span style=&quot;background-color: initial;&quot;&gt;[ISO 19148, 3.9]&lt;/span&gt;&lt;b style=&quot;background-color: initial;&quot;&gt;:&amp;nbsp;&lt;/b&gt;&lt;i style=&quot;font-size: 11px; background-color: initial;&quot;&gt;one-dimensional object that serves as the axis along which measurements are made -&amp;nbsp;&lt;/i&gt;&lt;i style=&quot;font-size: 10px; background-color: initial;&quot;&gt;Note 1 to entry: Also known as curvilinear element.&amp;nbsp;&lt;/i&gt;&lt;i style=&quot;font-size: 10px; background-color: initial;&quot;&gt;EXAMPLE Feature &lt;/i&gt;&lt;span style=&quot;font-size: 10px; background-color: initial; font-variant-numeric: normal; font-variant-east-asian: normal; font-variant-alternates: normal; font-size-adjust: none; font-kerning: auto; font-optical-sizing: auto; font-feature-settings: normal; font-variation-settings: normal; font-variant-position: normal; font-stretch: normal; line-height: normal; font-family: Times;&quot; class=&quot;s1&quot;&gt;&lt;i&gt;(&lt;/i&gt;&lt;/span&gt;&lt;span style=&quot;font-size: 10px; background-color: initial; font-variant-numeric: normal; font-variant-east-asian: normal; font-variant-alternates: normal; font-size-adjust: none; font-kerning: auto; font-optical-sizing: auto; font-feature-settings: normal; font-variation-settings: normal; font-variant-position: normal; font-stretch: normal; line-height: normal; font-family: Times; color: rgb(5, 60, 246);&quot; class=&quot;s2&quot;&gt;&lt;i&gt;3.4&lt;/i&gt;&lt;/span&gt;&lt;i style=&quot;font-size: 10px; background-color: initial;&quot;&gt;), such as “road”; curve geometry; directed edge topological primitive.&lt;/i&gt;&lt;/div&gt;&lt;div&gt;&lt;b&gt;&lt;br&gt;&lt;/b&gt;&lt;/div&gt;&lt;div&gt;&lt;b&gt;Location&lt;/b&gt;&amp;nbsp;&lt;span style=&quot;background-color: initial;&quot;&gt;[ISO 19148, 3.19]:&amp;nbsp;&lt;/span&gt;&lt;i style=&quot;font-size: 11px; background-color: initial;&quot;&gt;particular place or position [!!] -&amp;nbsp;&lt;/i&gt;&lt;i style=&quot;font-size: 10px; background-color: initial;&quot;&gt;Note 1 to entry: A location identifies a geographic place -&amp;nbsp;&lt;/i&gt;&lt;i style=&quot;font-size: 10px; background-color: initial;&quot;&gt;Note 2 to entry: “Madrid”, “California”. -&amp;nbsp;&lt;/i&gt;&lt;i style=&quot;font-size: 10px; background-color: initial;&quot;&gt;Note 3 to entry: Additionally, in this document, a location is &lt;b&gt;represented&lt;/b&gt; by one of a set of data types that describe&amp;nbsp;&lt;/i&gt;&lt;i style=&quot;font-size: 10px; background-color: initial;&quot;&gt;a position &lt;/i&gt;&lt;span style=&quot;font-size: 10px; background-color: initial; font-variant-numeric: normal; font-variant-east-asian: normal; font-variant-alternates: normal; font-size-adjust: none; font-kerning: auto; font-optical-sizing: auto; font-feature-settings: normal; font-variation-settings: normal; font-variant-position: normal; font-stretch: normal; line-height: normal; font-family: Times;&quot; class=&quot;s1&quot;&gt;&lt;i&gt;(&lt;/i&gt;&lt;/span&gt;&lt;span style=&quot;font-size: 10px; background-color: initial; font-variant-numeric: normal; font-variant-east-asian: normal; font-variant-alternates: normal; font-size-adjust: none; font-kerning: auto; font-optical-sizing: auto; font-feature-settings: normal; font-variation-settings: normal; font-variant-position: normal; font-stretch: normal; line-height: normal; font-family: Times; color: rgb(5, 60, 246);&quot; class=&quot;s2&quot;&gt;&lt;i&gt;3.21&lt;/i&gt;&lt;/span&gt;&lt;i style=&quot;font-size: 10px; background-color: initial;&quot;&gt;), along with metadata about that data, including coordinates (from a coordinate reference&amp;nbsp;&lt;/i&gt;&lt;i style=&quot;background-color: initial; font-size: 10px;&quot;&gt;system), a measure (from a linear referencing system &lt;/i&gt;&lt;span style=&quot;background-color: initial; font-size: 10px; font-variant-numeric: normal; font-variant-east-asian: normal; font-variant-alternates: normal; font-size-adjust: none; font-kerning: auto; font-optical-sizing: auto; font-feature-settings: normal; font-variation-settings: normal; font-variant-position: normal; font-stretch: normal; line-height: normal; font-family: Times;&quot; class=&quot;s1&quot;&gt;&lt;i&gt;(&lt;/i&gt;&lt;/span&gt;&lt;span style=&quot;background-color: initial; font-size: 10px; font-variant-numeric: normal; font-variant-east-asian: normal; font-variant-alternates: normal; font-size-adjust: none; font-kerning: auto; font-optical-sizing: auto; font-feature-settings: normal; font-variation-settings: normal; font-variant-position: normal; font-stretch: normal; line-height: normal; font-family: Times; color: rgb(5, 60, 246);&quot; class=&quot;s2&quot;&gt;&lt;i&gt;3.12&lt;/i&gt;&lt;/span&gt;&lt;i style=&quot;background-color: initial; font-size: 10px;&quot;&gt;)), or an address (from an address system).&lt;/i&gt;&lt;span style=&quot;background-color: initial;&quot;&gt;&amp;nbsp;&lt;/span&gt;&lt;/div&gt;&lt;div&gt;&lt;div&gt;&lt;br&gt;&lt;/div&gt;&lt;div&gt;&lt;b&gt;Position&lt;/b&gt; [ISO 19148, 3.21]:&amp;nbsp;&lt;i style=&quot;font-size: 11px; background-color: initial;&quot;&gt;&lt;b&gt;data type&lt;/b&gt; that describes a point or geometry potentially occupied by an object or person&lt;/i&gt;&lt;/div&gt;&lt;/div&gt;&lt;div&gt;&lt;br&gt;&lt;/div&gt;&lt;div&gt;&lt;p style=&quot;margin: 0px; font-variant-numeric: normal; font-variant-east-asian: normal; font-variant-alternates: normal; font-size-adjust: none; font-kerning: auto; font-optical-sizing: auto; font-feature-settings: normal; font-variation-settings: normal; font-variant-position: normal; font-stretch: normal; line-height: normal;&quot; class=&quot;p1&quot;&gt;&lt;b style=&quot;&quot;&gt;&lt;font style=&quot;&quot;&gt;Referent&amp;nbsp;&lt;/font&gt;&lt;/b&gt;&lt;span style=&quot;background-color: initial;&quot;&gt;[ISO 19148, 3.22]:&amp;nbsp;&lt;/span&gt;&lt;i style=&quot;font-size: 11px; background-color: initial;&quot;&gt;known location &lt;/i&gt;&lt;span style=&quot;font-size: 11px; background-color: initial; font-variant-numeric: normal; font-variant-east-asian: normal; font-variant-alternates: normal; font-size-adjust: none; font-kerning: auto; font-optical-sizing: auto; font-feature-settings: normal; font-variation-settings: normal; font-variant-position: normal; font-stretch: normal; line-height: normal; font-family: Times;&quot; class=&quot;s1&quot;&gt;&lt;i&gt;(&lt;/i&gt;&lt;/span&gt;&lt;span style=&quot;font-size: 11px; background-color: initial; font-variant-numeric: normal; font-variant-east-asian: normal; font-variant-alternates: normal; font-size-adjust: none; font-kerning: auto; font-optical-sizing: auto; font-feature-settings: normal; font-variation-settings: normal; font-variant-position: normal; font-stretch: normal; line-height: normal; font-family: Times; color: rgb(5, 60, 246);&quot; class=&quot;s2&quot;&gt;&lt;i&gt;3.19&lt;/i&gt;&lt;/span&gt;&lt;i style=&quot;font-size: 11px; background-color: initial;&quot;&gt;) along a linear element &lt;/i&gt;&lt;span style=&quot;font-size: 11px; background-color: initial; font-variant-numeric: normal; font-variant-east-asian: normal; font-variant-alternates: normal; font-size-adjust: none; font-kerning: auto; font-optical-sizing: auto; font-feature-settings: normal; font-variation-settings: normal; font-variant-position: normal; font-stretch: normal; line-height: normal; font-family: Times;&quot; class=&quot;s1&quot;&gt;&lt;i&gt;(&lt;/i&gt;&lt;/span&gt;&lt;span style=&quot;font-size: 11px; background-color: initial; font-variant-numeric: normal; font-variant-east-asian: normal; font-variant-alternates: normal; font-size-adjust: none; font-kerning: auto; font-optical-sizing: auto; font-feature-settings: normal; font-variation-settings: normal; font-variant-position: normal; font-stretch: normal; line-height: normal; font-family: Times; color: rgb(5, 60, 246);&quot; class=&quot;s2&quot;&gt;&lt;i&gt;3.9&lt;/i&gt;&lt;/span&gt;&lt;i style=&quot;font-size: 11px; background-color: initial;&quot;&gt;) from which relative measurements are made -&amp;nbsp;&lt;/i&gt;&lt;i style=&quot;font-size: 10px; background-color: initial;&quot;&gt;EXAMPLE Milepost, kilopost or reference post.&lt;/i&gt;&lt;/p&gt;&lt;/div&gt;" style="text;html=1;align=left;verticalAlign=top;whiteSpace=wrap;rounded=0;" parent="1" vertex="1">
          <mxGeometry x="540" y="440" width="610" height="310" as="geometry" />
        </mxCell>
      </root>
    </mxGraphModel>
  </diagram>
</mxfile>
